<mxfile host="65bd71144e">
    <diagram id="T9zI-BnnAmOnSXbP3jJR" name="Page-1">
        <mxGraphModel dx="686" dy="490" grid="1" gridSize="10" guides="1" tooltips="1" connect="1" arrows="1" fold="1" page="1" pageScale="1" pageWidth="850" pageHeight="1100" math="0" shadow="0">
            <root>
                <mxCell id="0"/>
                <mxCell id="1" parent="0"/>
                <mxCell id="2" value="MySQL&lt;br&gt;Database" style="shape=cylinder3;whiteSpace=wrap;html=1;boundedLbl=1;backgroundOutline=1;size=11.213508605957031;fillColor=#1ba1e2;fontColor=#ffffff;strokeColor=#006EAF;gradientColor=#3B54BD;gradientDirection=east;fontFamily=Helvetica;fontStyle=1;fontSize=24;" vertex="1" parent="1">
                    <mxGeometry x="335" y="690" width="180" height="140" as="geometry"/>
                </mxCell>
                <mxCell id="4" value="Express, Nodejs&lt;br&gt;Backend" style="whiteSpace=wrap;html=1;fontSize=24;gradientDirection=east;fontStyle=1;labelBackgroundColor=none;fillColor=#FF4A6E;gradientColor=#F03232;" vertex="1" parent="1">
                    <mxGeometry x="305" y="455" width="240" height="110" as="geometry"/>
                </mxCell>
                <mxCell id="11" value="Admin Panel" style="shape=process;whiteSpace=wrap;html=1;backgroundOutline=1;shadow=0;labelBackgroundColor=none;fontFamily=Helvetica;fontSize=24;fillColor=#008a00;gradientDirection=east;size=0.08333333333333333;fontColor=#ffffff;strokeColor=#005700;fontStyle=1" vertex="1" parent="1">
                    <mxGeometry x="50" y="460" width="190" height="100" as="geometry"/>
                </mxCell>
                <mxCell id="13" value="" style="endArrow=classic;html=1;fontFamily=Helvetica;fontSize=24;entryX=1;entryY=0.5;entryDx=0;entryDy=0;exitX=0;exitY=0.5;exitDx=0;exitDy=0;" edge="1" parent="1" source="4" target="11">
                    <mxGeometry width="50" height="50" relative="1" as="geometry">
                        <mxPoint x="370" y="550" as="sourcePoint"/>
                        <mxPoint x="420" y="500" as="targetPoint"/>
                    </mxGeometry>
                </mxCell>
                <mxCell id="14" value="" style="endArrow=classic;startArrow=classic;html=1;fontFamily=Helvetica;fontSize=24;exitX=0.5;exitY=1;exitDx=0;exitDy=0;entryX=0;entryY=0.5;entryDx=0;entryDy=0;entryPerimeter=0;" edge="1" parent="1" source="11" target="2">
                    <mxGeometry width="50" height="50" relative="1" as="geometry">
                        <mxPoint x="370" y="620" as="sourcePoint"/>
                        <mxPoint x="420" y="570" as="targetPoint"/>
                    </mxGeometry>
                </mxCell>
                <mxCell id="19" value="React, Material UI&lt;br&gt;Frontend" style="shape=parallelogram;perimeter=parallelogramPerimeter;whiteSpace=wrap;html=1;fixedSize=1;shadow=0;labelBackgroundColor=none;fontFamily=Helvetica;fontSize=24;fillColor=#0050ef;gradientDirection=east;fontColor=#ffffff;strokeColor=#001DBC;gradientColor=#6666FF;fontStyle=1" vertex="1" parent="1">
                    <mxGeometry x="290" y="200" width="270" height="100" as="geometry"/>
                </mxCell>
                <mxCell id="20" value="" style="endArrow=classic;startArrow=classic;html=1;fontFamily=Helvetica;fontSize=24;entryX=0.5;entryY=1;entryDx=0;entryDy=0;exitX=0.492;exitY=-0.081;exitDx=0;exitDy=0;exitPerimeter=0;" edge="1" parent="1" source="4" target="19">
                    <mxGeometry width="50" height="50" relative="1" as="geometry">
                        <mxPoint x="320" y="430" as="sourcePoint"/>
                        <mxPoint x="370" y="380" as="targetPoint"/>
                    </mxGeometry>
                </mxCell>
                <mxCell id="21" value="" style="endArrow=classic;startArrow=classic;html=1;fontFamily=Helvetica;fontSize=24;exitX=0.5;exitY=1;exitDx=0;exitDy=0;entryX=0.5;entryY=0;entryDx=0;entryDy=0;entryPerimeter=0;" edge="1" parent="1" source="4" target="2">
                    <mxGeometry width="50" height="50" relative="1" as="geometry">
                        <mxPoint x="330" y="520" as="sourcePoint"/>
                        <mxPoint x="510" y="715" as="targetPoint"/>
                    </mxGeometry>
                </mxCell>
                <mxCell id="22" value="" style="endArrow=classic;startArrow=classic;html=1;fontFamily=Helvetica;fontSize=24;exitX=0;exitY=0.5;exitDx=0;exitDy=0;entryX=0.5;entryY=0;entryDx=0;entryDy=0;" edge="1" parent="1" source="19" target="11">
                    <mxGeometry width="50" height="50" relative="1" as="geometry">
                        <mxPoint x="220" y="310" as="sourcePoint"/>
                        <mxPoint x="400" y="505" as="targetPoint"/>
                    </mxGeometry>
                </mxCell>
                <mxCell id="23" value="Axios" style="text;html=1;strokeColor=none;fillColor=none;align=center;verticalAlign=middle;whiteSpace=wrap;rounded=0;shadow=0;labelBackgroundColor=none;fontFamily=Helvetica;fontSize=24;rotation=90;fontStyle=1" vertex="1" parent="1">
                    <mxGeometry x="410" y="360" width="60" height="30" as="geometry"/>
                </mxCell>
                <mxCell id="28" value="Mysql2" style="text;html=1;strokeColor=none;fillColor=none;align=center;verticalAlign=middle;whiteSpace=wrap;rounded=0;shadow=0;labelBackgroundColor=none;fontFamily=Helvetica;fontSize=24;rotation=90;fontStyle=1" vertex="1" parent="1">
                    <mxGeometry x="420" y="610" width="60" height="30" as="geometry"/>
                </mxCell>
            </root>
        </mxGraphModel>
    </diagram>
</mxfile>